<mxfile host="app.diagrams.net" modified="2024-04-22T17:03:40.750Z" agent="Mozilla/5.0 (Windows NT 10.0; Win64; x64) AppleWebKit/537.36 (KHTML, like Gecko) Chrome/124.0.0.0 Safari/537.36" etag="eemAwmvs7QpZO8c7sEqe" version="24.2.7" type="device">
  <diagram name="Página-1" id="oJuLMS3o7vrBeLsBsg9G">
    <mxGraphModel dx="1674" dy="818" grid="1" gridSize="10" guides="1" tooltips="1" connect="1" arrows="1" fold="1" page="1" pageScale="1" pageWidth="827" pageHeight="1169" math="0" shadow="0">
      <root>
        <mxCell id="0" />
        <mxCell id="1" parent="0" />
        <mxCell id="KYjZGA-r3Tc1XkjmR_4G-1" value="" style="rounded=0;whiteSpace=wrap;html=1;" parent="1" vertex="1">
          <mxGeometry x="210" y="120" width="280" height="550" as="geometry" />
        </mxCell>
        <mxCell id="KYjZGA-r3Tc1XkjmR_4G-2" value="" style="ellipse;whiteSpace=wrap;html=1;aspect=fixed;" parent="1" vertex="1">
          <mxGeometry x="240" y="160" width="80" height="80" as="geometry" />
        </mxCell>
        <mxCell id="KYjZGA-r3Tc1XkjmR_4G-3" value="" style="rounded=0;whiteSpace=wrap;html=1;" parent="1" vertex="1">
          <mxGeometry x="350" y="180" width="120" height="40" as="geometry" />
        </mxCell>
        <mxCell id="KYjZGA-r3Tc1XkjmR_4G-4" value="" style="rounded=0;whiteSpace=wrap;html=1;" parent="1" vertex="1">
          <mxGeometry x="210" y="130" width="30" height="20" as="geometry" />
        </mxCell>
        <mxCell id="KYjZGA-r3Tc1XkjmR_4G-5" value="logo" style="text;html=1;align=center;verticalAlign=middle;whiteSpace=wrap;rounded=0;" parent="1" vertex="1">
          <mxGeometry x="210" y="125" width="30" height="30" as="geometry" />
        </mxCell>
        <mxCell id="KYjZGA-r3Tc1XkjmR_4G-6" value="" style="rounded=0;whiteSpace=wrap;html=1;" parent="1" vertex="1">
          <mxGeometry x="300" y="260" width="100" height="30" as="geometry" />
        </mxCell>
        <mxCell id="KYjZGA-r3Tc1XkjmR_4G-7" value="" style="rounded=0;whiteSpace=wrap;html=1;" parent="1" vertex="1">
          <mxGeometry x="240" y="310" width="75" height="60" as="geometry" />
        </mxCell>
        <mxCell id="KYjZGA-r3Tc1XkjmR_4G-8" value="" style="rounded=0;whiteSpace=wrap;html=1;" parent="1" vertex="1">
          <mxGeometry x="240" y="410" width="75" height="60" as="geometry" />
        </mxCell>
        <mxCell id="KYjZGA-r3Tc1XkjmR_4G-9" value="" style="rounded=0;whiteSpace=wrap;html=1;" parent="1" vertex="1">
          <mxGeometry x="385" y="310" width="80" height="60" as="geometry" />
        </mxCell>
        <mxCell id="KYjZGA-r3Tc1XkjmR_4G-10" value="" style="rounded=0;whiteSpace=wrap;html=1;" parent="1" vertex="1">
          <mxGeometry x="385" y="410" width="80" height="60" as="geometry" />
        </mxCell>
        <mxCell id="KYjZGA-r3Tc1XkjmR_4G-11" value="" style="rounded=0;whiteSpace=wrap;html=1;" parent="1" vertex="1">
          <mxGeometry x="400" y="125" width="10" height="10" as="geometry" />
        </mxCell>
        <mxCell id="KYjZGA-r3Tc1XkjmR_4G-12" value="" style="rounded=0;whiteSpace=wrap;html=1;" parent="1" vertex="1">
          <mxGeometry x="420" y="125" width="10" height="10" as="geometry" />
        </mxCell>
        <mxCell id="KYjZGA-r3Tc1XkjmR_4G-13" value="" style="rounded=0;whiteSpace=wrap;html=1;" parent="1" vertex="1">
          <mxGeometry x="440" y="125" width="10" height="10" as="geometry" />
        </mxCell>
        <mxCell id="KYjZGA-r3Tc1XkjmR_4G-14" value="" style="rounded=0;whiteSpace=wrap;html=1;" parent="1" vertex="1">
          <mxGeometry x="460" y="125" width="10" height="10" as="geometry" />
        </mxCell>
        <mxCell id="KYjZGA-r3Tc1XkjmR_4G-15" value="hrefs" style="text;html=1;align=center;verticalAlign=middle;whiteSpace=wrap;rounded=0;" parent="1" vertex="1">
          <mxGeometry x="400" y="135" width="60" height="30" as="geometry" />
        </mxCell>
        <mxCell id="KYjZGA-r3Tc1XkjmR_4G-16" value="foto" style="text;html=1;align=center;verticalAlign=middle;whiteSpace=wrap;rounded=0;" parent="1" vertex="1">
          <mxGeometry x="250" y="185" width="60" height="30" as="geometry" />
        </mxCell>
        <mxCell id="KYjZGA-r3Tc1XkjmR_4G-17" value="apresentaçao" style="text;html=1;align=center;verticalAlign=middle;whiteSpace=wrap;rounded=0;" parent="1" vertex="1">
          <mxGeometry x="375" y="185" width="60" height="30" as="geometry" />
        </mxCell>
        <mxCell id="KYjZGA-r3Tc1XkjmR_4G-18" value="topicos sobre mim" style="text;html=1;align=center;verticalAlign=middle;whiteSpace=wrap;rounded=0;" parent="1" vertex="1">
          <mxGeometry x="315" y="264" width="70" height="22" as="geometry" />
        </mxCell>
        <mxCell id="KYjZGA-r3Tc1XkjmR_4G-19" value="" style="rounded=0;whiteSpace=wrap;html=1;" parent="1" vertex="1">
          <mxGeometry x="240" y="510" width="60" height="120" as="geometry" />
        </mxCell>
        <mxCell id="KYjZGA-r3Tc1XkjmR_4G-20" value="tecno" style="text;html=1;align=center;verticalAlign=middle;whiteSpace=wrap;rounded=0;" parent="1" vertex="1">
          <mxGeometry x="240" y="545" width="60" height="30" as="geometry" />
        </mxCell>
        <mxCell id="KYjZGA-r3Tc1XkjmR_4G-22" value="" style="rounded=0;whiteSpace=wrap;html=1;" parent="1" vertex="1">
          <mxGeometry x="325" y="510" width="60" height="30" as="geometry" />
        </mxCell>
        <mxCell id="uzPvI0g3EmsWuSnaNOri-1" value="" style="rounded=0;whiteSpace=wrap;html=1;" vertex="1" parent="1">
          <mxGeometry x="400" y="510" width="60" height="30" as="geometry" />
        </mxCell>
        <mxCell id="uzPvI0g3EmsWuSnaNOri-2" value="" style="rounded=0;whiteSpace=wrap;html=1;" vertex="1" parent="1">
          <mxGeometry x="325" y="555" width="60" height="30" as="geometry" />
        </mxCell>
        <mxCell id="uzPvI0g3EmsWuSnaNOri-3" value="" style="rounded=0;whiteSpace=wrap;html=1;" vertex="1" parent="1">
          <mxGeometry x="400" y="555" width="60" height="30" as="geometry" />
        </mxCell>
        <mxCell id="uzPvI0g3EmsWuSnaNOri-4" value="" style="rounded=0;whiteSpace=wrap;html=1;" vertex="1" parent="1">
          <mxGeometry x="325" y="600" width="60" height="30" as="geometry" />
        </mxCell>
        <mxCell id="uzPvI0g3EmsWuSnaNOri-5" value="" style="rounded=0;whiteSpace=wrap;html=1;" vertex="1" parent="1">
          <mxGeometry x="405" y="600" width="60" height="30" as="geometry" />
        </mxCell>
      </root>
    </mxGraphModel>
  </diagram>
</mxfile>
